# xmcd CD database file
#
# Track frame offsets:
#	182
#	14585
#	26320
#	38562
#	49752
#	63435
#	75775
#	89775
#	104645
#	119525
#	132405
#	145757
#	159277
#	172570
#	184957
#	199237
#	211735
#	222945
#	236187
#	249782
#	263672
#	277622
#	289397
#
# Disc length: 4024 seconds
#
# Revision: 0
# Processed by: cddbd v1.5.1PL0 Copyright (c) Steve Scherf et al.
# Submitted via: CDex 1.51
#
DISCID=3f0fb617
DTITLE=Duke Ellington and His Orchestra - 1938
DYEAR=1938
DGENRE=Jazz
TTITLE0=M-713-1:(C38)Stepping Into Swing Society
TTITLE1=M-714-1:(C38)Prologue To Black And Tan Fantasy
TTITLE2=M-715-1:(C38)The New Black And Tan Fantasy
TTITLE3=M-724-1:(C38)Drummer's Delight
TTITLE4=M-725-1:(C38)If I Thought You Cared
TTITLE5=M-726-2:(C38)Have A Heart (Lost In Meditation)
TTITLE6=M-727-2:(C38)My Day
TTITLE7=M-728-1:(C38)Silvery Moon And Golden Sands
TTITLE8=M-729-2:(C38)Echoes Of Harlem
TTITLE9=M-751-1:(C38)Ridiing On A Blue Note
TTITLE10=M-752-1:(C38)Lost In Meditation
TTITLE11=M-753-1:(C38)The Gal From Joe's
TTITLE12=M-770-2:(C38)If You Were In My Place (What Would You Do)
TTITLE13=M-771-2:(C38)Scrounch
TTITLE14=M-772-1:(C38)I Let A Song Go Out Of My Heart
TTITLE15=M-773-1:(C38)Braggin' In Brass
TTITLE16=M-774-1:(C38)Carnival In Caroline
TTITLE17=M-793-1:(C38)Jeep's Blues
TTITLE18=M-794-1:(C38)If You Were In My Place
TTITLE19=M-795-1:(C38)I Let A Song Go Out Of My Heart
TTITLE20=M-796-6:(C38)Rendezvous With Rhythm
TTITLE21=M-801-1:(C38)A Lesson In C
TTITLE22=M-801-1:(C38)Swingtime In Honolulu
EXTD=YEAR: 1938
EXTT0=
EXTT1=
EXTT2=
EXTT3=
EXTT4=
EXTT5=
EXTT6=
EXTT7=
EXTT8=
EXTT9=
EXTT10=
EXTT11=
EXTT12=
EXTT13=
EXTT14=
EXTT15=
EXTT16=
EXTT17=
EXTT18=
EXTT19=
EXTT20=
EXTT21=
EXTT22=
PLAYORDER=
